<mxfile host="app.diagrams.net" agent="Mozilla/5.0 (Macintosh; Intel Mac OS X 10_15_7) AppleWebKit/537.36 (KHTML, like Gecko) Chrome/134.0.0.0 Safari/537.36" version="26.1.3">
  <diagram name="페이지-1" id="ecNl1lNDAvdgYdBro9C4">
    <mxGraphModel dx="1611" dy="913" grid="1" gridSize="10" guides="1" tooltips="1" connect="1" arrows="1" fold="1" page="1" pageScale="1" pageWidth="827" pageHeight="1169" math="0" shadow="0">
      <root>
        <mxCell id="0" />
        <mxCell id="1" parent="0" />
        <mxCell id="yrYbkvFYg02SQjdJ59uQ-1" value="1" style="strokeColor=default;rounded=0;" parent="1" vertex="1">
          <mxGeometry x="86.5" y="380" width="40" height="20" as="geometry" />
        </mxCell>
        <mxCell id="yrYbkvFYg02SQjdJ59uQ-2" value="서비스 시나리오 선정 및 문제정의, 요구사항 분석" style="align=left;strokeColor=#6c8ebf;rounded=0;fillColor=#dae8fc;" parent="1" vertex="1">
          <mxGeometry x="126.5" y="380" width="320" height="20" as="geometry" />
        </mxCell>
        <mxCell id="yrYbkvFYg02SQjdJ59uQ-3" value="1" style="strokeColor=#6c8ebf;rounded=0;fillColor=#dae8fc;" parent="1" vertex="1">
          <mxGeometry x="446.50000000000176" y="380" width="80.00000000000028" height="20" as="geometry" />
        </mxCell>
        <mxCell id="yrYbkvFYg02SQjdJ59uQ-4" value="25.03.30" style="strokeColor=#6c8ebf;rounded=0;fillColor=#dae8fc;" parent="1" vertex="1">
          <mxGeometry x="526.500000000002" y="380" width="80.00000000000028" height="20" as="geometry" />
        </mxCell>
        <mxCell id="yrYbkvFYg02SQjdJ59uQ-5" value="25.03.30" style="strokeColor=#6c8ebf;rounded=0;fillColor=#dae8fc;" parent="1" vertex="1">
          <mxGeometry x="606.5000000000016" y="380.0000000000002" width="80.00000000000028" height="20" as="geometry" />
        </mxCell>
        <mxCell id="yrYbkvFYg02SQjdJ59uQ-6" value="" style="strokeColor=#DEEDFF;rounded=0;" parent="1" vertex="1">
          <mxGeometry x="726.500000000002" y="380.0000000000002" width="20" height="520" as="geometry" />
        </mxCell>
        <mxCell id="yrYbkvFYg02SQjdJ59uQ-7" value="2" style="strokeColor=default;rounded=0;" parent="1" vertex="1">
          <mxGeometry x="86.50000000000026" y="399.9999999999999" width="40" height="20" as="geometry" />
        </mxCell>
        <mxCell id="yrYbkvFYg02SQjdJ59uQ-8" value="서비스 시나리오 추상적/구체적 설계" style="align=left;strokeColor=default;fillColor=#FFFFFF;rounded=0;" parent="1" vertex="1">
          <mxGeometry x="126.50000000000026" y="399.9999999999999" width="319.9999999999998" height="20" as="geometry" />
        </mxCell>
        <mxCell id="yrYbkvFYg02SQjdJ59uQ-9" value="1" style="strokeColor=default;rounded=0;" parent="1" vertex="1">
          <mxGeometry x="446.500000000002" y="399.99999999999983" width="80.00000000000028" height="20" as="geometry" />
        </mxCell>
        <mxCell id="yrYbkvFYg02SQjdJ59uQ-10" value="25.03.31" style="strokeColor=default;rounded=0;" parent="1" vertex="1">
          <mxGeometry x="526.5000000000023" y="399.99999999999983" width="80.00000000000028" height="20" as="geometry" />
        </mxCell>
        <mxCell id="yrYbkvFYg02SQjdJ59uQ-11" value="25.03.31" style="strokeColor=default;rounded=0;" parent="1" vertex="1">
          <mxGeometry x="606.5000000000018" y="400.0000000000001" width="80.00000000000028" height="20" as="geometry" />
        </mxCell>
        <mxCell id="yrYbkvFYg02SQjdJ59uQ-12" value="3" style="strokeColor=default;rounded=0;" parent="1" vertex="1">
          <mxGeometry x="86.50000000000027" y="419.9999999999998" width="40" height="20" as="geometry" />
        </mxCell>
        <mxCell id="yrYbkvFYg02SQjdJ59uQ-13" value="테스트 및 아키텍처 기초 설계" style="align=left;strokeColor=default;rounded=0;" parent="1" vertex="1">
          <mxGeometry x="126.50000000000027" y="419.9999999999998" width="319.9999999999997" height="20.000000000000014" as="geometry" />
        </mxCell>
        <mxCell id="yrYbkvFYg02SQjdJ59uQ-14" value="1" style="strokeColor=default;rounded=0;" parent="1" vertex="1">
          <mxGeometry x="446.500000000002" y="419.9999999999997" width="80.00000000000028" height="20" as="geometry" />
        </mxCell>
        <mxCell id="yrYbkvFYg02SQjdJ59uQ-15" value="25.04.01" style="strokeColor=default;rounded=0;" parent="1" vertex="1">
          <mxGeometry x="526.5000000000023" y="419.9999999999997" width="80.00000000000028" height="20" as="geometry" />
        </mxCell>
        <mxCell id="yrYbkvFYg02SQjdJ59uQ-16" value="25.04.01" style="strokeColor=default;rounded=0;" parent="1" vertex="1">
          <mxGeometry x="606.5000000000018" y="420" width="80.00000000000028" height="20" as="geometry" />
        </mxCell>
        <mxCell id="yrYbkvFYg02SQjdJ59uQ-17" value="4" style="strokeColor=default;rounded=0;" parent="1" vertex="1">
          <mxGeometry x="86.5" y="440.00000000000017" width="40" height="20" as="geometry" />
        </mxCell>
        <mxCell id="yrYbkvFYg02SQjdJ59uQ-18" value="Mock API &amp; Swagger 연동" style="align=left;strokeColor=default;rounded=0;" parent="1" vertex="1">
          <mxGeometry x="126.5" y="440.00000000000017" width="320" height="20" as="geometry" />
        </mxCell>
        <mxCell id="yrYbkvFYg02SQjdJ59uQ-19" value="2" style="strokeColor=default;rounded=0;" parent="1" vertex="1">
          <mxGeometry x="446.5000000000017" y="440.0000000000001" width="80.00000000000028" height="20" as="geometry" />
        </mxCell>
        <mxCell id="yrYbkvFYg02SQjdJ59uQ-20" value="25.04.02" style="strokeColor=default;rounded=0;" parent="1" vertex="1">
          <mxGeometry x="526.500000000002" y="440.0000000000001" width="80.00000000000028" height="20" as="geometry" />
        </mxCell>
        <mxCell id="yrYbkvFYg02SQjdJ59uQ-21" value="25.04.03" style="strokeColor=default;rounded=0;" parent="1" vertex="1">
          <mxGeometry x="606.5000000000015" y="440.0000000000004" width="80.00000000000028" height="20" as="geometry" />
        </mxCell>
        <mxCell id="yrYbkvFYg02SQjdJ59uQ-22" value="5" style="strokeColor=default;rounded=0;" parent="1" vertex="1">
          <mxGeometry x="86.49999999999991" y="460.00000000000017" width="40" height="20" as="geometry" />
        </mxCell>
        <mxCell id="yrYbkvFYg02SQjdJ59uQ-23" value="통합 테스트 &amp; 리팩토링 + 회고" style="align=left;strokeColor=default;rounded=0;" parent="1" vertex="1">
          <mxGeometry x="126.49999999999991" y="460.00000000000017" width="320.0000000000001" height="20" as="geometry" />
        </mxCell>
        <mxCell id="yrYbkvFYg02SQjdJ59uQ-24" value="1" style="strokeColor=default;rounded=0;" parent="1" vertex="1">
          <mxGeometry x="446.50000000000165" y="460.0000000000001" width="80.00000000000028" height="20" as="geometry" />
        </mxCell>
        <mxCell id="yrYbkvFYg02SQjdJ59uQ-25" value="25.04.03" style="strokeColor=default;rounded=0;" parent="1" vertex="1">
          <mxGeometry x="526.5000000000019" y="460.0000000000001" width="80.00000000000028" height="20" as="geometry" />
        </mxCell>
        <mxCell id="yrYbkvFYg02SQjdJ59uQ-26" value="25.04.03" style="strokeColor=default;rounded=0;" parent="1" vertex="1">
          <mxGeometry x="606.5000000000015" y="460.0000000000004" width="80.00000000000028" height="20" as="geometry" />
        </mxCell>
        <mxCell id="yrYbkvFYg02SQjdJ59uQ-27" value="6" style="strokeColor=default;rounded=0;" parent="1" vertex="1">
          <mxGeometry x="86.4999999999999" y="480.00000000000045" width="40" height="20" as="geometry" />
        </mxCell>
        <mxCell id="yrYbkvFYg02SQjdJ59uQ-28" value="JPA ORM 설계 및 엔티티 셋팅" style="align=left;strokeColor=#6c8ebf;rounded=0;fillColor=#dae8fc;" parent="1" vertex="1">
          <mxGeometry x="126.4999999999999" y="480.00000000000045" width="320.0000000000001" height="20" as="geometry" />
        </mxCell>
        <mxCell id="yrYbkvFYg02SQjdJ59uQ-29" value="2" style="strokeColor=#6c8ebf;rounded=0;fillColor=#dae8fc;" parent="1" vertex="1">
          <mxGeometry x="446.50000000000165" y="480.00000000000034" width="80.00000000000028" height="20" as="geometry" />
        </mxCell>
        <mxCell id="yrYbkvFYg02SQjdJ59uQ-30" value="25.04.05" style="strokeColor=#6c8ebf;rounded=0;fillColor=#dae8fc;" parent="1" vertex="1">
          <mxGeometry x="526.5000000000019" y="480.00000000000034" width="80.00000000000028" height="20" as="geometry" />
        </mxCell>
        <mxCell id="yrYbkvFYg02SQjdJ59uQ-31" value="25.04.06" style="strokeColor=#6c8ebf;rounded=0;fillColor=#dae8fc;" parent="1" vertex="1">
          <mxGeometry x="606.5000000000015" y="480.0000000000007" width="80.00000000000028" height="20" as="geometry" />
        </mxCell>
        <mxCell id="yrYbkvFYg02SQjdJ59uQ-32" value="7" style="strokeColor=default;rounded=0;" parent="1" vertex="1">
          <mxGeometry x="86.50000000000063" y="500.0000000000007" width="40" height="20" as="geometry" />
        </mxCell>
        <mxCell id="yrYbkvFYg02SQjdJ59uQ-33" value="서비스 계층 설계 및 구현" style="align=left;strokeColor=default;rounded=0;" parent="1" vertex="1">
          <mxGeometry x="126.50000000000063" y="500.0000000000007" width="319.9999999999994" height="20" as="geometry" />
        </mxCell>
        <mxCell id="yrYbkvFYg02SQjdJ59uQ-34" value="1" style="strokeColor=default;rounded=0;" parent="1" vertex="1">
          <mxGeometry x="446.5000000000024" y="500.0000000000007" width="80.00000000000028" height="20" as="geometry" />
        </mxCell>
        <mxCell id="yrYbkvFYg02SQjdJ59uQ-35" value="25.04.07" style="strokeColor=default;rounded=0;" parent="1" vertex="1">
          <mxGeometry x="526.5000000000027" y="500.0000000000007" width="80.00000000000028" height="20" as="geometry" />
        </mxCell>
        <mxCell id="yrYbkvFYg02SQjdJ59uQ-36" value="24.04.07" style="strokeColor=default;rounded=0;" parent="1" vertex="1">
          <mxGeometry x="606.5000000000022" y="500.0000000000009" width="80.00000000000028" height="20" as="geometry" />
        </mxCell>
        <mxCell id="yrYbkvFYg02SQjdJ59uQ-37" value="8" style="strokeColor=default;rounded=0;" parent="1" vertex="1">
          <mxGeometry x="86.50000000000064" y="520.0000000000006" width="40" height="20" as="geometry" />
        </mxCell>
        <mxCell id="yrYbkvFYg02SQjdJ59uQ-38" value="API 기능 개발(유저 관리 기능) 및 테스트 코드 작성" style="align=left;strokeColor=default;rounded=0;" parent="1" vertex="1">
          <mxGeometry x="126.50000000000064" y="520.0000000000006" width="319.9999999999994" height="20" as="geometry" />
        </mxCell>
        <mxCell id="yrYbkvFYg02SQjdJ59uQ-39" value="2" style="strokeColor=default;rounded=0;" parent="1" vertex="1">
          <mxGeometry x="446.5000000000024" y="520.0000000000006" width="80.00000000000028" height="20" as="geometry" />
        </mxCell>
        <mxCell id="yrYbkvFYg02SQjdJ59uQ-40" value="24.04.08" style="strokeColor=default;rounded=0;" parent="1" vertex="1">
          <mxGeometry x="526.5000000000027" y="520.0000000000006" width="80.00000000000028" height="20" as="geometry" />
        </mxCell>
        <mxCell id="yrYbkvFYg02SQjdJ59uQ-41" value="24.04.10" style="strokeColor=default;rounded=0;" parent="1" vertex="1">
          <mxGeometry x="606.5000000000022" y="520.0000000000008" width="80.00000000000028" height="20" as="geometry" />
        </mxCell>
        <mxCell id="yrYbkvFYg02SQjdJ59uQ-42" value="9" style="rounded=0;" parent="1" vertex="1">
          <mxGeometry x="86.50000000000037" y="540.000000000001" width="40" height="20" as="geometry" />
        </mxCell>
        <mxCell id="yrYbkvFYg02SQjdJ59uQ-43" value="API 기능 개발(예약 가능 날짜 / 좌석 조회) 및 테스트 코드 작성" style="align=left;rounded=0;" parent="1" vertex="1">
          <mxGeometry x="127.50000000000037" y="540.000000000001" width="319.99999999999966" height="20.00000000000003" as="geometry" />
        </mxCell>
        <mxCell id="yrYbkvFYg02SQjdJ59uQ-44" value="2" style="rounded=0;" parent="1" vertex="1">
          <mxGeometry x="446.5000000000021" y="540.0000000000009" width="80.00000000000028" height="20" as="geometry" />
        </mxCell>
        <mxCell id="yrYbkvFYg02SQjdJ59uQ-45" value="" style="rounded=0;" parent="1" vertex="1">
          <mxGeometry x="526.5000000000025" y="540.0000000000009" width="80.00000000000028" height="20" as="geometry" />
        </mxCell>
        <mxCell id="yrYbkvFYg02SQjdJ59uQ-46" value="" style="rounded=0;" parent="1" vertex="1">
          <mxGeometry x="606.5000000000018" y="540.0000000000013" width="80.00000000000028" height="20" as="geometry" />
        </mxCell>
        <mxCell id="yrYbkvFYg02SQjdJ59uQ-47" value="10" style="strokeColor=default;rounded=0;" parent="1" vertex="1">
          <mxGeometry x="86.50000000000028" y="560.000000000001" width="40" height="20" as="geometry" />
        </mxCell>
        <mxCell id="yrYbkvFYg02SQjdJ59uQ-48" value="" style="strokeColor=default;rounded=0;" parent="1" vertex="1">
          <mxGeometry x="526.5000000000023" y="560.0000000000009" width="80.00000000000028" height="20" as="geometry" />
        </mxCell>
        <mxCell id="yrYbkvFYg02SQjdJ59uQ-49" value="" style="strokeColor=default;rounded=0;" parent="1" vertex="1">
          <mxGeometry x="606.5000000000018" y="560.0000000000013" width="80.00000000000028" height="20" as="geometry" />
        </mxCell>
        <mxCell id="yrYbkvFYg02SQjdJ59uQ-50" value="11" style="strokeColor=default;rounded=0;" parent="1" vertex="1">
          <mxGeometry x="86.50000000000027" y="580.0000000000013" width="40" height="20" as="geometry" />
        </mxCell>
        <mxCell id="yrYbkvFYg02SQjdJ59uQ-51" value="API 기능 개발(잔액 관리 시스템) 및 테스트 코드 작성" style="align=left;strokeColor=default;rounded=0;" parent="1" vertex="1">
          <mxGeometry x="126.50000000000027" y="600.0000000000013" width="319.9999999999997" height="20" as="geometry" />
        </mxCell>
        <mxCell id="yrYbkvFYg02SQjdJ59uQ-52" value="" style="strokeColor=default;rounded=0;" parent="1" vertex="1">
          <mxGeometry x="526.5000000000023" y="580.0000000000011" width="80.00000000000028" height="20" as="geometry" />
        </mxCell>
        <mxCell id="yrYbkvFYg02SQjdJ59uQ-53" value="" style="strokeColor=default;rounded=0;" parent="1" vertex="1">
          <mxGeometry x="606.5000000000018" y="580.0000000000015" width="80.00000000000028" height="20" as="geometry" />
        </mxCell>
        <mxCell id="yrYbkvFYg02SQjdJ59uQ-54" value="12" style="strokeColor=default;rounded=0;" parent="1" vertex="1">
          <mxGeometry x="86.49999999999997" y="600.0000000000016" width="40" height="20" as="geometry" />
        </mxCell>
        <mxCell id="yrYbkvFYg02SQjdJ59uQ-55" value="2" style="strokeColor=default;rounded=0;" parent="1" vertex="1">
          <mxGeometry x="446.5000000000017" y="600.0000000000015" width="80.00000000000028" height="20" as="geometry" />
        </mxCell>
        <mxCell id="yrYbkvFYg02SQjdJ59uQ-56" value="" style="strokeColor=default;rounded=0;" parent="1" vertex="1">
          <mxGeometry x="526.500000000002" y="600.0000000000015" width="80.00000000000028" height="20" as="geometry" />
        </mxCell>
        <mxCell id="yrYbkvFYg02SQjdJ59uQ-57" value="" style="strokeColor=default;rounded=0;" parent="1" vertex="1">
          <mxGeometry x="606.5000000000015" y="600.0000000000018" width="80.00000000000028" height="20" as="geometry" />
        </mxCell>
        <mxCell id="yrYbkvFYg02SQjdJ59uQ-58" value="13" style="strokeColor=default;rounded=0;" parent="1" vertex="1">
          <mxGeometry x="86.49999999999999" y="620.0000000000014" width="40" height="20" as="geometry" />
        </mxCell>
        <mxCell id="yrYbkvFYg02SQjdJ59uQ-59" value="" style="strokeColor=default;rounded=0;" parent="1" vertex="1">
          <mxGeometry x="446.5000000000017" y="620.0000000000014" width="80.00000000000028" height="20" as="geometry" />
        </mxCell>
        <mxCell id="yrYbkvFYg02SQjdJ59uQ-60" value="" style="strokeColor=default;rounded=0;" parent="1" vertex="1">
          <mxGeometry x="526.500000000002" y="620.0000000000014" width="80.00000000000028" height="20" as="geometry" />
        </mxCell>
        <mxCell id="yrYbkvFYg02SQjdJ59uQ-61" value="" style="strokeColor=default;rounded=0;" parent="1" vertex="1">
          <mxGeometry x="606.5000000000015" y="620.0000000000016" width="80.00000000000028" height="20" as="geometry" />
        </mxCell>
        <mxCell id="yrYbkvFYg02SQjdJ59uQ-62" value="14" style="strokeColor=default;rounded=0;" parent="1" vertex="1">
          <mxGeometry x="86.49999999999972" y="640.0000000000018" width="40" height="20" as="geometry" />
        </mxCell>
        <mxCell id="yrYbkvFYg02SQjdJ59uQ-63" value="" style="strokeColor=default;rounded=0;" parent="1" vertex="1">
          <mxGeometry x="446.5000000000014" y="640.0000000000018" width="80.00000000000028" height="20" as="geometry" />
        </mxCell>
        <mxCell id="yrYbkvFYg02SQjdJ59uQ-64" value="" style="strokeColor=default;rounded=0;" parent="1" vertex="1">
          <mxGeometry x="526.5000000000018" y="640.0000000000018" width="80.00000000000028" height="20" as="geometry" />
        </mxCell>
        <mxCell id="yrYbkvFYg02SQjdJ59uQ-65" value="" style="strokeColor=default;rounded=0;" parent="1" vertex="1">
          <mxGeometry x="606.5000000000011" y="640.000000000002" width="80.00000000000028" height="20" as="geometry" />
        </mxCell>
        <mxCell id="yrYbkvFYg02SQjdJ59uQ-66" value="15" style="strokeColor=default;fillColor=#FFFFFF;rounded=0;" parent="1" vertex="1">
          <mxGeometry x="86.49999999999963" y="660.0000000000018" width="40" height="20" as="geometry" />
        </mxCell>
        <mxCell id="yrYbkvFYg02SQjdJ59uQ-67" value="" style="strokeColor=default;fillColor=#FFFFFF;rounded=0;" parent="1" vertex="1">
          <mxGeometry x="446.50000000000136" y="660.0000000000018" width="80.00000000000028" height="20" as="geometry" />
        </mxCell>
        <mxCell id="yrYbkvFYg02SQjdJ59uQ-68" value="" style="strokeColor=default;fillColor=#FFFFFF;rounded=0;" parent="1" vertex="1">
          <mxGeometry x="526.5000000000016" y="660.0000000000018" width="80.00000000000028" height="20" as="geometry" />
        </mxCell>
        <mxCell id="yrYbkvFYg02SQjdJ59uQ-69" value="" style="strokeColor=default;fillColor=#FFFFFF;rounded=0;" parent="1" vertex="1">
          <mxGeometry x="606.5000000000011" y="660.000000000002" width="80.00000000000028" height="20" as="geometry" />
        </mxCell>
        <mxCell id="yrYbkvFYg02SQjdJ59uQ-70" value="16" style="strokeColor=default;fillColor=#CCE5FF;rounded=0;" parent="1" vertex="1">
          <mxGeometry x="86.49999999999962" y="680.000000000002" width="40" height="20" as="geometry" />
        </mxCell>
        <mxCell id="yrYbkvFYg02SQjdJ59uQ-71" value="" style="align=left;strokeColor=default;fillColor=#CCE5FF;rounded=0;" parent="1" vertex="1">
          <mxGeometry x="126.49999999999962" y="680.000000000002" width="320.0000000000004" height="20" as="geometry" />
        </mxCell>
        <mxCell id="yrYbkvFYg02SQjdJ59uQ-72" value="" style="strokeColor=default;fillColor=#CCE5FF;rounded=0;" parent="1" vertex="1">
          <mxGeometry x="446.50000000000136" y="680.000000000002" width="80.00000000000028" height="20" as="geometry" />
        </mxCell>
        <mxCell id="yrYbkvFYg02SQjdJ59uQ-73" value="" style="strokeColor=default;fillColor=#CCE5FF;rounded=0;" parent="1" vertex="1">
          <mxGeometry x="526.5000000000016" y="680.000000000002" width="80.00000000000028" height="20" as="geometry" />
        </mxCell>
        <mxCell id="yrYbkvFYg02SQjdJ59uQ-74" value="" style="strokeColor=default;fillColor=#CCE5FF;rounded=0;" parent="1" vertex="1">
          <mxGeometry x="606.5000000000011" y="680.0000000000023" width="80.00000000000028" height="20" as="geometry" />
        </mxCell>
        <mxCell id="yrYbkvFYg02SQjdJ59uQ-75" value="17" style="strokeColor=default;rounded=0;" parent="1" vertex="1">
          <mxGeometry x="86.500000000001" y="700.0000000000023" width="40" height="20" as="geometry" />
        </mxCell>
        <mxCell id="yrYbkvFYg02SQjdJ59uQ-76" value="" style="strokeColor=default;rounded=0;" parent="1" vertex="1">
          <mxGeometry x="446.50000000000273" y="700.0000000000023" width="80.00000000000028" height="20" as="geometry" />
        </mxCell>
        <mxCell id="yrYbkvFYg02SQjdJ59uQ-77" value="" style="strokeColor=default;rounded=0;" parent="1" vertex="1">
          <mxGeometry x="526.500000000003" y="700.0000000000023" width="80.00000000000028" height="20" as="geometry" />
        </mxCell>
        <mxCell id="yrYbkvFYg02SQjdJ59uQ-78" value="" style="strokeColor=default;rounded=0;" parent="1" vertex="1">
          <mxGeometry x="606.5000000000025" y="700.0000000000025" width="80.00000000000028" height="20" as="geometry" />
        </mxCell>
        <mxCell id="yrYbkvFYg02SQjdJ59uQ-79" value="18" style="strokeColor=default;rounded=0;" parent="1" vertex="1">
          <mxGeometry x="86.50000000000102" y="720.0000000000022" width="40" height="20" as="geometry" />
        </mxCell>
        <mxCell id="yrYbkvFYg02SQjdJ59uQ-80" value="" style="align=left;strokeColor=default;rounded=0;" parent="1" vertex="1">
          <mxGeometry x="126.50000000000102" y="720.0000000000022" width="319.999999999999" height="20" as="geometry" />
        </mxCell>
        <mxCell id="yrYbkvFYg02SQjdJ59uQ-81" value="" style="strokeColor=default;rounded=0;" parent="1" vertex="1">
          <mxGeometry x="446.50000000000273" y="720.000000000002" width="80.00000000000028" height="20" as="geometry" />
        </mxCell>
        <mxCell id="yrYbkvFYg02SQjdJ59uQ-82" value="" style="strokeColor=default;rounded=0;" parent="1" vertex="1">
          <mxGeometry x="526.500000000003" y="720.000000000002" width="80.00000000000028" height="20" as="geometry" />
        </mxCell>
        <mxCell id="yrYbkvFYg02SQjdJ59uQ-83" value="" style="strokeColor=default;rounded=0;" parent="1" vertex="1">
          <mxGeometry x="606.5000000000025" y="720.0000000000024" width="80.00000000000028" height="20" as="geometry" />
        </mxCell>
        <mxCell id="yrYbkvFYg02SQjdJ59uQ-84" value="19" style="strokeColor=default;rounded=0;" parent="1" vertex="1">
          <mxGeometry x="86.50000000000074" y="740.0000000000025" width="40" height="20" as="geometry" />
        </mxCell>
        <mxCell id="yrYbkvFYg02SQjdJ59uQ-85" value="" style="align=left;strokeColor=default;rounded=0;" parent="1" vertex="1">
          <mxGeometry x="126.50000000000074" y="740.0000000000025" width="319.99999999999926" height="20" as="geometry" />
        </mxCell>
        <mxCell id="yrYbkvFYg02SQjdJ59uQ-86" value="" style="strokeColor=default;rounded=0;" parent="1" vertex="1">
          <mxGeometry x="446.50000000000244" y="740.0000000000025" width="80.00000000000028" height="20" as="geometry" />
        </mxCell>
        <mxCell id="yrYbkvFYg02SQjdJ59uQ-87" value="" style="strokeColor=default;rounded=0;" parent="1" vertex="1">
          <mxGeometry x="526.5000000000027" y="740.0000000000025" width="80.00000000000028" height="20" as="geometry" />
        </mxCell>
        <mxCell id="yrYbkvFYg02SQjdJ59uQ-88" value="" style="strokeColor=default;rounded=0;" parent="1" vertex="1">
          <mxGeometry x="606.5000000000023" y="740.0000000000027" width="80.00000000000028" height="20" as="geometry" />
        </mxCell>
        <mxCell id="yrYbkvFYg02SQjdJ59uQ-89" value="20" style="strokeColor=default;rounded=0;" parent="1" vertex="1">
          <mxGeometry x="86.50000000000065" y="760.0000000000025" width="40" height="20" as="geometry" />
        </mxCell>
        <mxCell id="yrYbkvFYg02SQjdJ59uQ-90" value="" style="align=left;strokeColor=default;rounded=0;" parent="1" vertex="1">
          <mxGeometry x="126.50000000000065" y="760.0000000000025" width="319.9999999999993" height="20" as="geometry" />
        </mxCell>
        <mxCell id="yrYbkvFYg02SQjdJ59uQ-91" value="" style="strokeColor=default;rounded=0;" parent="1" vertex="1">
          <mxGeometry x="446.5000000000024" y="760.0000000000025" width="80.00000000000028" height="20" as="geometry" />
        </mxCell>
        <mxCell id="yrYbkvFYg02SQjdJ59uQ-92" value="" style="strokeColor=default;rounded=0;" parent="1" vertex="1">
          <mxGeometry x="526.5000000000027" y="760.0000000000025" width="80.00000000000028" height="20" as="geometry" />
        </mxCell>
        <mxCell id="yrYbkvFYg02SQjdJ59uQ-93" value="" style="strokeColor=default;rounded=0;" parent="1" vertex="1">
          <mxGeometry x="606.5000000000023" y="760.0000000000027" width="80.00000000000028" height="20" as="geometry" />
        </mxCell>
        <mxCell id="yrYbkvFYg02SQjdJ59uQ-94" value="21" style="strokeColor=default;rounded=0;" parent="1" vertex="1">
          <mxGeometry x="86.50000000000065" y="780.0000000000028" width="40" height="20" as="geometry" />
        </mxCell>
        <mxCell id="yrYbkvFYg02SQjdJ59uQ-95" value="" style="align=left;strokeColor=default;rounded=0;" parent="1" vertex="1">
          <mxGeometry x="126.50000000000065" y="780.0000000000028" width="319.9999999999993" height="20" as="geometry" />
        </mxCell>
        <mxCell id="yrYbkvFYg02SQjdJ59uQ-96" value="" style="strokeColor=default;rounded=0;" parent="1" vertex="1">
          <mxGeometry x="446.5000000000024" y="780.0000000000027" width="80.00000000000028" height="20" as="geometry" />
        </mxCell>
        <mxCell id="yrYbkvFYg02SQjdJ59uQ-97" value="" style="strokeColor=default;rounded=0;" parent="1" vertex="1">
          <mxGeometry x="526.5000000000027" y="780.0000000000027" width="80.00000000000028" height="20" as="geometry" />
        </mxCell>
        <mxCell id="yrYbkvFYg02SQjdJ59uQ-98" value="" style="strokeColor=default;rounded=0;" parent="1" vertex="1">
          <mxGeometry x="606.5000000000023" y="780.0000000000031" width="80.00000000000028" height="20" as="geometry" />
        </mxCell>
        <mxCell id="yrYbkvFYg02SQjdJ59uQ-99" value="22" style="strokeColor=default;rounded=0;" parent="1" vertex="1">
          <mxGeometry x="86.50000000000136" y="800.0000000000031" width="40" height="20" as="geometry" />
        </mxCell>
        <mxCell id="yrYbkvFYg02SQjdJ59uQ-100" value="" style="align=left;strokeColor=default;rounded=0;" parent="1" vertex="1">
          <mxGeometry x="126.50000000000136" y="800.0000000000031" width="319.99999999999864" height="20" as="geometry" />
        </mxCell>
        <mxCell id="yrYbkvFYg02SQjdJ59uQ-101" value="" style="strokeColor=default;rounded=0;" parent="1" vertex="1">
          <mxGeometry x="446.5000000000031" y="800.000000000003" width="80.00000000000028" height="20" as="geometry" />
        </mxCell>
        <mxCell id="yrYbkvFYg02SQjdJ59uQ-102" value="" style="strokeColor=default;rounded=0;" parent="1" vertex="1">
          <mxGeometry x="526.5000000000034" y="800.000000000003" width="80.00000000000028" height="20" as="geometry" />
        </mxCell>
        <mxCell id="yrYbkvFYg02SQjdJ59uQ-103" value="" style="strokeColor=default;rounded=0;" parent="1" vertex="1">
          <mxGeometry x="606.500000000003" y="800.0000000000033" width="80.00000000000028" height="20" as="geometry" />
        </mxCell>
        <mxCell id="yrYbkvFYg02SQjdJ59uQ-104" value="23" style="strokeColor=default;rounded=0;" parent="1" vertex="1">
          <mxGeometry x="86.50000000000139" y="820.000000000003" width="40" height="20" as="geometry" />
        </mxCell>
        <mxCell id="yrYbkvFYg02SQjdJ59uQ-105" value="" style="align=left;strokeColor=default;rounded=0;" parent="1" vertex="1">
          <mxGeometry x="126.50000000000139" y="820.000000000003" width="319.99999999999864" height="20" as="geometry" />
        </mxCell>
        <mxCell id="yrYbkvFYg02SQjdJ59uQ-106" value="" style="strokeColor=default;rounded=0;" parent="1" vertex="1">
          <mxGeometry x="446.5000000000031" y="820.000000000003" width="80.00000000000028" height="20" as="geometry" />
        </mxCell>
        <mxCell id="yrYbkvFYg02SQjdJ59uQ-107" value="" style="strokeColor=default;rounded=0;" parent="1" vertex="1">
          <mxGeometry x="526.5000000000034" y="820.000000000003" width="80.00000000000028" height="20" as="geometry" />
        </mxCell>
        <mxCell id="yrYbkvFYg02SQjdJ59uQ-108" value="" style="strokeColor=default;rounded=0;" parent="1" vertex="1">
          <mxGeometry x="606.500000000003" y="820.0000000000032" width="80.00000000000028" height="20" as="geometry" />
        </mxCell>
        <mxCell id="yrYbkvFYg02SQjdJ59uQ-109" value="24" style="strokeColor=default;rounded=0;" parent="1" vertex="1">
          <mxGeometry x="86.50000000000111" y="840.0000000000034" width="40" height="20" as="geometry" />
        </mxCell>
        <mxCell id="yrYbkvFYg02SQjdJ59uQ-110" value="" style="align=left;strokeColor=default;rounded=0;" parent="1" vertex="1">
          <mxGeometry x="126.50000000000111" y="840.0000000000034" width="319.99999999999886" height="20" as="geometry" />
        </mxCell>
        <mxCell id="yrYbkvFYg02SQjdJ59uQ-111" value="" style="strokeColor=default;rounded=0;" parent="1" vertex="1">
          <mxGeometry x="446.50000000000284" y="840.0000000000033" width="80.00000000000028" height="20" as="geometry" />
        </mxCell>
        <mxCell id="yrYbkvFYg02SQjdJ59uQ-112" value="" style="strokeColor=default;rounded=0;" parent="1" vertex="1">
          <mxGeometry x="526.5000000000032" y="840.0000000000033" width="80.00000000000028" height="20" as="geometry" />
        </mxCell>
        <mxCell id="yrYbkvFYg02SQjdJ59uQ-113" value="" style="strokeColor=default;rounded=0;" parent="1" vertex="1">
          <mxGeometry x="606.5000000000026" y="840.0000000000036" width="80.00000000000028" height="20" as="geometry" />
        </mxCell>
        <mxCell id="yrYbkvFYg02SQjdJ59uQ-114" value="25" style="strokeColor=default;rounded=0;" parent="1" vertex="1">
          <mxGeometry x="86.50000000000102" y="860.0000000000034" width="40" height="20" as="geometry" />
        </mxCell>
        <mxCell id="yrYbkvFYg02SQjdJ59uQ-115" value="" style="align=left;strokeColor=default;rounded=0;" parent="1" vertex="1">
          <mxGeometry x="126.50000000000102" y="860.0000000000034" width="319.999999999999" height="20" as="geometry" />
        </mxCell>
        <mxCell id="yrYbkvFYg02SQjdJ59uQ-116" value="" style="strokeColor=default;rounded=0;" parent="1" vertex="1">
          <mxGeometry x="446.5000000000028" y="860.0000000000033" width="80.00000000000028" height="20" as="geometry" />
        </mxCell>
        <mxCell id="yrYbkvFYg02SQjdJ59uQ-117" value="" style="strokeColor=default;rounded=0;" parent="1" vertex="1">
          <mxGeometry x="526.5000000000031" y="860.0000000000033" width="80.00000000000028" height="20" as="geometry" />
        </mxCell>
        <mxCell id="yrYbkvFYg02SQjdJ59uQ-118" value="" style="strokeColor=default;rounded=0;" parent="1" vertex="1">
          <mxGeometry x="606.5000000000026" y="860.0000000000036" width="80.00000000000028" height="20" as="geometry" />
        </mxCell>
        <mxCell id="yrYbkvFYg02SQjdJ59uQ-119" value="26" style="strokeColor=default;rounded=0;" parent="1" vertex="1">
          <mxGeometry x="86.50000000000102" y="880.0000000000036" width="40" height="20" as="geometry" />
        </mxCell>
        <mxCell id="yrYbkvFYg02SQjdJ59uQ-120" value="" style="align=left;strokeColor=default;rounded=0;" parent="1" vertex="1">
          <mxGeometry x="126.500000000001" y="880.0000000000036" width="319.999999999999" height="20" as="geometry" />
        </mxCell>
        <mxCell id="yrYbkvFYg02SQjdJ59uQ-121" value="" style="strokeColor=default;rounded=0;" parent="1" vertex="1">
          <mxGeometry x="446.5000000000028" y="880.0000000000035" width="80.00000000000028" height="20" as="geometry" />
        </mxCell>
        <mxCell id="yrYbkvFYg02SQjdJ59uQ-122" value="" style="strokeColor=default;rounded=0;" parent="1" vertex="1">
          <mxGeometry x="526.5000000000031" y="880.0000000000035" width="80.00000000000028" height="20" as="geometry" />
        </mxCell>
        <mxCell id="yrYbkvFYg02SQjdJ59uQ-123" value="" style="strokeColor=default;rounded=0;" parent="1" vertex="1">
          <mxGeometry x="606.5000000000026" y="880.0000000000039" width="80.00000000000028" height="20" as="geometry" />
        </mxCell>
        <mxCell id="yrYbkvFYg02SQjdJ59uQ-124" value="" style="strokeColor=#DEEDFF;rounded=0;" parent="1" vertex="1">
          <mxGeometry x="746.500000000002" y="380.00000000000387" width="20" height="520" as="geometry" />
        </mxCell>
        <mxCell id="yrYbkvFYg02SQjdJ59uQ-125" value="" style="strokeColor=#DEEDFF;rounded=0;" parent="1" vertex="1">
          <mxGeometry x="766.500000000002" y="380.00000000000387" width="20" height="520" as="geometry" />
        </mxCell>
        <mxCell id="yrYbkvFYg02SQjdJ59uQ-126" value="" style="strokeColor=#DEEDFF;rounded=0;" parent="1" vertex="1">
          <mxGeometry x="786.500000000002" y="380.00000000000387" width="20" height="520" as="geometry" />
        </mxCell>
        <mxCell id="yrYbkvFYg02SQjdJ59uQ-127" value="" style="strokeColor=#DEEDFF;rounded=0;" parent="1" vertex="1">
          <mxGeometry x="806.500000000002" y="380.00000000000387" width="20" height="520" as="geometry" />
        </mxCell>
        <mxCell id="yrYbkvFYg02SQjdJ59uQ-128" value="" style="strokeColor=#DEEDFF;fillColor=#D4E1FF;rounded=0;" parent="1" vertex="1">
          <mxGeometry x="826.500000000002" y="380.0000000000075" width="20" height="520" as="geometry" />
        </mxCell>
        <mxCell id="yrYbkvFYg02SQjdJ59uQ-129" value="" style="strokeColor=#DEEDFF;fillColor=#D4E1FF;rounded=0;" parent="1" vertex="1">
          <mxGeometry x="846.500000000002" y="380.0000000000075" width="20" height="520" as="geometry" />
        </mxCell>
        <mxCell id="yrYbkvFYg02SQjdJ59uQ-130" value="" style="strokeColor=#DEEDFF;rounded=0;" parent="1" vertex="1">
          <mxGeometry x="866.500000000002" y="380.0000000000075" width="20" height="520" as="geometry" />
        </mxCell>
        <mxCell id="yrYbkvFYg02SQjdJ59uQ-131" value="" style="strokeColor=#DEEDFF;rounded=0;" parent="1" vertex="1">
          <mxGeometry x="886.5000000000016" y="380.0000000000075" width="20" height="520" as="geometry" />
        </mxCell>
        <mxCell id="yrYbkvFYg02SQjdJ59uQ-132" value="" style="strokeColor=#DEEDFF;rounded=0;" parent="1" vertex="1">
          <mxGeometry x="866.5000000000016" y="380.00000000001114" width="20" height="520" as="geometry" />
        </mxCell>
        <mxCell id="yrYbkvFYg02SQjdJ59uQ-133" value="" style="strokeColor=#DEEDFF;rounded=0;" parent="1" vertex="1">
          <mxGeometry x="886.5000000000016" y="380.00000000001114" width="20" height="520" as="geometry" />
        </mxCell>
        <mxCell id="yrYbkvFYg02SQjdJ59uQ-134" value="" style="strokeColor=#DEEDFF;rounded=0;" parent="1" vertex="1">
          <mxGeometry x="906.5000000000016" y="380.00000000001114" width="20" height="520" as="geometry" />
        </mxCell>
        <mxCell id="yrYbkvFYg02SQjdJ59uQ-135" value="" style="strokeColor=#DEEDFF;rounded=0;" parent="1" vertex="1">
          <mxGeometry x="966.5000000000018" y="380.0000000000148" width="20" height="520" as="geometry" />
        </mxCell>
        <mxCell id="yrYbkvFYg02SQjdJ59uQ-136" value="" style="strokeColor=#DEEDFF;rounded=0;" parent="1" vertex="1">
          <mxGeometry x="986.5000000000018" y="380.0000000000148" width="20" height="520" as="geometry" />
        </mxCell>
        <mxCell id="yrYbkvFYg02SQjdJ59uQ-137" value="" style="strokeColor=#DEEDFF;rounded=0;" parent="1" vertex="1">
          <mxGeometry x="1006.5000000000018" y="380.0000000000002" width="20" height="520" as="geometry" />
        </mxCell>
        <mxCell id="yrYbkvFYg02SQjdJ59uQ-138" value="" style="strokeColor=#DEEDFF;rounded=0;" parent="1" vertex="1">
          <mxGeometry x="1026.5000000000018" y="380.00000000000387" width="20" height="520" as="geometry" />
        </mxCell>
        <mxCell id="yrYbkvFYg02SQjdJ59uQ-139" value="" style="strokeColor=#DEEDFF;rounded=0;" parent="1" vertex="1">
          <mxGeometry x="1046.5000000000018" y="380.00000000000387" width="20" height="520" as="geometry" />
        </mxCell>
        <mxCell id="yrYbkvFYg02SQjdJ59uQ-140" value="" style="strokeColor=#DEEDFF;rounded=0;" parent="1" vertex="1">
          <mxGeometry x="1106.5000000000018" y="380.0000000000184" width="20" height="520" as="geometry" />
        </mxCell>
        <mxCell id="yrYbkvFYg02SQjdJ59uQ-141" value="" style="strokeColor=#DEEDFF;rounded=0;" parent="1" vertex="1">
          <mxGeometry x="1126.5000000000018" y="380.0000000000184" width="20" height="520" as="geometry" />
        </mxCell>
        <mxCell id="yrYbkvFYg02SQjdJ59uQ-142" value="" style="strokeColor=#DEEDFF;rounded=0;" parent="1" vertex="1">
          <mxGeometry x="1146.5000000000018" y="380.0000000000184" width="20" height="520" as="geometry" />
        </mxCell>
        <mxCell id="yrYbkvFYg02SQjdJ59uQ-143" value="" style="strokeColor=#DEEDFF;rounded=0;" parent="1" vertex="1">
          <mxGeometry x="1166.500000000002" y="380.0000000000184" width="20" height="520" as="geometry" />
        </mxCell>
        <mxCell id="yrYbkvFYg02SQjdJ59uQ-144" value="" style="strokeColor=#DEEDFF;rounded=0;" parent="1" vertex="1">
          <mxGeometry x="1186.500000000002" y="380.00000000002206" width="20" height="520" as="geometry" />
        </mxCell>
        <mxCell id="yrYbkvFYg02SQjdJ59uQ-145" value="" style="strokeColor=#DEEDFF;rounded=0;" parent="1" vertex="1">
          <mxGeometry x="1246.500000000002" y="380.00000000002206" width="20" height="520" as="geometry" />
        </mxCell>
        <mxCell id="yrYbkvFYg02SQjdJ59uQ-146" value="" style="strokeColor=#DEEDFF;rounded=0;" parent="1" vertex="1">
          <mxGeometry x="1266.500000000002" y="380.0000000000257" width="20" height="520" as="geometry" />
        </mxCell>
        <mxCell id="yrYbkvFYg02SQjdJ59uQ-147" value="" style="strokeColor=#DEEDFF;rounded=0;" parent="1" vertex="1">
          <mxGeometry x="1326.500000000002" y="380.0000000000257" width="20" height="520" as="geometry" />
        </mxCell>
        <mxCell id="yrYbkvFYg02SQjdJ59uQ-148" value="" style="strokeColor=#DEEDFF;rounded=0;" parent="1" vertex="1">
          <mxGeometry x="1286.500000000002" y="380.0000000000257" width="20" height="520" as="geometry" />
        </mxCell>
        <mxCell id="yrYbkvFYg02SQjdJ59uQ-149" value="" style="strokeColor=#DEEDFF;rounded=0;" parent="1" vertex="1">
          <mxGeometry x="1306.5000000000016" y="380.0000000000257" width="20" height="520" as="geometry" />
        </mxCell>
        <mxCell id="yrYbkvFYg02SQjdJ59uQ-150" value="" style="strokeColor=#DEEDFF;rounded=0;" parent="1" vertex="1">
          <mxGeometry x="1366.5000000000016" y="380.00000000002933" width="20" height="520" as="geometry" />
        </mxCell>
        <mxCell id="yrYbkvFYg02SQjdJ59uQ-151" value="" style="strokeColor=#DEEDFF;rounded=0;" parent="1" vertex="1">
          <mxGeometry x="1386.5000000000016" y="380.00000000002933" width="20" height="520" as="geometry" />
        </mxCell>
        <mxCell id="yrYbkvFYg02SQjdJ59uQ-152" value="" style="strokeColor=#DEEDFF;rounded=0;" parent="1" vertex="1">
          <mxGeometry x="1406.5000000000016" y="380.00000000003297" width="20" height="520" as="geometry" />
        </mxCell>
        <mxCell id="yrYbkvFYg02SQjdJ59uQ-153" value="" style="strokeColor=#DEEDFF;rounded=0;" parent="1" vertex="1">
          <mxGeometry x="1426.5000000000016" y="380.00000000003297" width="20" height="520" as="geometry" />
        </mxCell>
        <mxCell id="yrYbkvFYg02SQjdJ59uQ-154" value="" style="strokeColor=#DEEDFF;rounded=0;" parent="1" vertex="1">
          <mxGeometry x="1446.5000000000016" y="380.00000000003297" width="20" height="520" as="geometry" />
        </mxCell>
        <mxCell id="yrYbkvFYg02SQjdJ59uQ-155" value="" style="strokeColor=#DEEDFF;rounded=0;" parent="1" vertex="1">
          <mxGeometry x="1506.5000000000016" y="380.00000000002206" width="20" height="520" as="geometry" />
        </mxCell>
        <mxCell id="yrYbkvFYg02SQjdJ59uQ-156" value="" style="strokeColor=#DEEDFF;rounded=0;" parent="1" vertex="1">
          <mxGeometry x="1526.5000000000016" y="380.00000000002206" width="20" height="520" as="geometry" />
        </mxCell>
        <mxCell id="yrYbkvFYg02SQjdJ59uQ-157" value="" style="strokeColor=#DEEDFF;rounded=0;" parent="1" vertex="1">
          <mxGeometry x="1546.5000000000016" y="380.00000000003297" width="20" height="520" as="geometry" />
        </mxCell>
        <mxCell id="yrYbkvFYg02SQjdJ59uQ-158" value="" style="strokeColor=#DEEDFF;rounded=0;" parent="1" vertex="1">
          <mxGeometry x="1566.5000000000016" y="380.0000000000366" width="20" height="520" as="geometry" />
        </mxCell>
        <mxCell id="yrYbkvFYg02SQjdJ59uQ-159" value="" style="strokeColor=#DEEDFF;rounded=0;" parent="1" vertex="1">
          <mxGeometry x="1586.5000000000016" y="380.0000000000366" width="20" height="520" as="geometry" />
        </mxCell>
        <mxCell id="yrYbkvFYg02SQjdJ59uQ-160" value="Task Name" style="fillColor=#23445D;strokeColor=default;strokeWidth=2;fontColor=#FFFFFF;fontStyle=1;rounded=0;" parent="1" vertex="1">
          <mxGeometry x="126.5" y="340" width="320" height="40" as="geometry" />
        </mxCell>
        <mxCell id="yrYbkvFYg02SQjdJ59uQ-161" value="" style="fillColor=#23445D;strokeColor=default;strokeWidth=2;fontColor=#FFFFFF;fontStyle=1;rounded=0;" parent="1" vertex="1">
          <mxGeometry x="86.5" y="340" width="40" height="40" as="geometry" />
        </mxCell>
        <mxCell id="yrYbkvFYg02SQjdJ59uQ-162" value="29 March 25" style="fillColor=#23445D;strokeColor=#FFFFFF;strokeWidth=2;fontColor=#FFFFFF;fontStyle=1;rounded=0;" parent="1" vertex="1">
          <mxGeometry x="686.5000000000018" y="340.0000000000001" width="140" height="20" as="geometry" />
        </mxCell>
        <mxCell id="yrYbkvFYg02SQjdJ59uQ-163" value="M" style="fillColor=#23445D;strokeColor=#FFFFFF;strokeWidth=2;fontColor=#FFFFFF;fontStyle=1;rounded=0;" parent="1" vertex="1">
          <mxGeometry x="726.5000000000018" y="360.0000000000001" width="20" height="20" as="geometry" />
        </mxCell>
        <mxCell id="yrYbkvFYg02SQjdJ59uQ-164" value="T" style="fillColor=#23445D;strokeColor=#FFFFFF;strokeWidth=2;fontColor=#FFFFFF;fontStyle=1;rounded=0;" parent="1" vertex="1">
          <mxGeometry x="746.5000000000018" y="360.0000000000001" width="20" height="20" as="geometry" />
        </mxCell>
        <mxCell id="yrYbkvFYg02SQjdJ59uQ-165" value="W" style="fillColor=#23445D;strokeColor=#FFFFFF;strokeWidth=2;fontColor=#FFFFFF;fontStyle=1;rounded=0;" parent="1" vertex="1">
          <mxGeometry x="766.5000000000018" y="360.0000000000001" width="20" height="20" as="geometry" />
        </mxCell>
        <mxCell id="yrYbkvFYg02SQjdJ59uQ-166" value="T" style="fillColor=#23445D;strokeColor=#FFFFFF;strokeWidth=2;fontColor=#FFFFFF;fontStyle=1;rounded=0;" parent="1" vertex="1">
          <mxGeometry x="786.5000000000018" y="360.0000000000001" width="20" height="20" as="geometry" />
        </mxCell>
        <mxCell id="yrYbkvFYg02SQjdJ59uQ-167" value="F" style="fillColor=#23445D;strokeColor=#FFFFFF;strokeWidth=2;fontColor=#FFFFFF;fontStyle=1;rounded=0;" parent="1" vertex="1">
          <mxGeometry x="806.5000000000016" y="360.0000000000001" width="20" height="20" as="geometry" />
        </mxCell>
        <mxCell id="yrYbkvFYg02SQjdJ59uQ-168" value="S" style="fillColor=#23445D;strokeColor=#FFFFFF;strokeWidth=2;fontColor=#FFFFFF;fontStyle=1;rounded=0;" parent="1" vertex="1">
          <mxGeometry x="826.5000000000016" y="360.0000000000001" width="20" height="20" as="geometry" />
        </mxCell>
        <mxCell id="yrYbkvFYg02SQjdJ59uQ-169" value="S" style="fillColor=#23445D;strokeColor=#FFFFFF;strokeWidth=2;fontColor=#FFFFFF;fontStyle=1;rounded=0;" parent="1" vertex="1">
          <mxGeometry x="846.5000000000016" y="360.0000000000001" width="20" height="20" as="geometry" />
        </mxCell>
        <mxCell id="yrYbkvFYg02SQjdJ59uQ-170" value="Duration(day)" style="fillColor=#23445D;strokeColor=default;strokeWidth=2;fontColor=#FFFFFF;fontStyle=1;rounded=0;fontSize=10;" parent="1" vertex="1">
          <mxGeometry x="446.50000000000176" y="340.00000000000006" width="80.00000000000006" height="40.00000000000001" as="geometry" />
        </mxCell>
        <mxCell id="yrYbkvFYg02SQjdJ59uQ-171" value="Start" style="fillColor=#23445D;strokeColor=default;strokeWidth=2;fontColor=#FFFFFF;fontStyle=1;rounded=0;" parent="1" vertex="1">
          <mxGeometry x="526.5000000000018" y="340.00000000000006" width="80.00000000000006" height="40.00000000000001" as="geometry" />
        </mxCell>
        <mxCell id="yrYbkvFYg02SQjdJ59uQ-172" value="ETA" style="fillColor=#23445D;strokeColor=default;strokeWidth=2;fontColor=#FFFFFF;fontStyle=1;rounded=0;" parent="1" vertex="1">
          <mxGeometry x="606.5000000000019" y="340.0000000000001" width="80.00000000000006" height="40.00000000000001" as="geometry" />
        </mxCell>
        <mxCell id="yrYbkvFYg02SQjdJ59uQ-173" value="5 March 25" style="fillColor=#23445D;strokeColor=#FFFFFF;strokeWidth=2;fontColor=#FFFFFF;fontStyle=1;rounded=0;" parent="1" vertex="1">
          <mxGeometry x="826.5000000000018" y="340.0000000000001" width="140" height="20" as="geometry" />
        </mxCell>
        <mxCell id="yrYbkvFYg02SQjdJ59uQ-174" value="M" style="fillColor=#23445D;strokeColor=#FFFFFF;strokeWidth=2;fontColor=#FFFFFF;fontStyle=1;rounded=0;" parent="1" vertex="1">
          <mxGeometry x="906.5000000000018" y="360.0000000000001" width="20" height="20" as="geometry" />
        </mxCell>
        <mxCell id="yrYbkvFYg02SQjdJ59uQ-175" value="T" style="fillColor=#23445D;strokeColor=#FFFFFF;strokeWidth=2;fontColor=#FFFFFF;fontStyle=1;rounded=0;" parent="1" vertex="1">
          <mxGeometry x="926.5000000000018" y="360.0000000000001" width="20" height="20" as="geometry" />
        </mxCell>
        <mxCell id="yrYbkvFYg02SQjdJ59uQ-176" value="W" style="fillColor=#23445D;strokeColor=#FFFFFF;strokeWidth=2;fontColor=#FFFFFF;fontStyle=1;rounded=0;" parent="1" vertex="1">
          <mxGeometry x="906.5000000000018" y="360.0000000000001" width="20" height="20" as="geometry" />
        </mxCell>
        <mxCell id="yrYbkvFYg02SQjdJ59uQ-177" value="T" style="fillColor=#23445D;strokeColor=#FFFFFF;strokeWidth=2;fontColor=#FFFFFF;fontStyle=1;rounded=0;" parent="1" vertex="1">
          <mxGeometry x="926.5000000000018" y="360.0000000000001" width="20" height="20" as="geometry" />
        </mxCell>
        <mxCell id="yrYbkvFYg02SQjdJ59uQ-178" value="F" style="fillColor=#23445D;strokeColor=#FFFFFF;strokeWidth=2;fontColor=#FFFFFF;fontStyle=1;rounded=0;" parent="1" vertex="1">
          <mxGeometry x="946.5000000000016" y="360.0000000000001" width="20" height="20" as="geometry" />
        </mxCell>
        <mxCell id="yrYbkvFYg02SQjdJ59uQ-179" value="S" style="fillColor=#23445D;strokeColor=#FFFFFF;strokeWidth=2;fontColor=#FFFFFF;fontStyle=1;rounded=0;" parent="1" vertex="1">
          <mxGeometry x="966.5000000000016" y="360.0000000000001" width="20" height="20" as="geometry" />
        </mxCell>
        <mxCell id="yrYbkvFYg02SQjdJ59uQ-180" value="S" style="fillColor=#23445D;strokeColor=#FFFFFF;strokeWidth=2;fontColor=#FFFFFF;fontStyle=1;rounded=0;" parent="1" vertex="1">
          <mxGeometry x="986.5000000000016" y="360.0000000000001" width="20" height="20" as="geometry" />
        </mxCell>
        <mxCell id="yrYbkvFYg02SQjdJ59uQ-181" value="12 March 25" style="fillColor=#23445D;strokeColor=#FFFFFF;strokeWidth=2;fontColor=#FFFFFF;fontStyle=1;rounded=0;" parent="1" vertex="1">
          <mxGeometry x="966.5000000000018" y="340.00000000000006" width="140" height="20" as="geometry" />
        </mxCell>
        <mxCell id="yrYbkvFYg02SQjdJ59uQ-182" value="M" style="fillColor=#23445D;strokeColor=#FFFFFF;strokeWidth=2;fontColor=#FFFFFF;fontStyle=1;rounded=0;" parent="1" vertex="1">
          <mxGeometry x="1006.5000000000018" y="360.00000000000006" width="20" height="20" as="geometry" />
        </mxCell>
        <mxCell id="yrYbkvFYg02SQjdJ59uQ-183" value="T" style="fillColor=#23445D;strokeColor=#FFFFFF;strokeWidth=2;fontColor=#FFFFFF;fontStyle=1;rounded=0;" parent="1" vertex="1">
          <mxGeometry x="1026.5000000000018" y="360.00000000000006" width="20" height="20" as="geometry" />
        </mxCell>
        <mxCell id="yrYbkvFYg02SQjdJ59uQ-184" value="W" style="fillColor=#23445D;strokeColor=#FFFFFF;strokeWidth=2;fontColor=#FFFFFF;fontStyle=1;rounded=0;" parent="1" vertex="1">
          <mxGeometry x="1046.5000000000018" y="360.00000000000006" width="20" height="20" as="geometry" />
        </mxCell>
        <mxCell id="yrYbkvFYg02SQjdJ59uQ-185" value="T" style="fillColor=#23445D;strokeColor=#FFFFFF;strokeWidth=2;fontColor=#FFFFFF;fontStyle=1;rounded=0;" parent="1" vertex="1">
          <mxGeometry x="1066.5000000000018" y="360.00000000000006" width="20" height="20" as="geometry" />
        </mxCell>
        <mxCell id="yrYbkvFYg02SQjdJ59uQ-186" value="F" style="fillColor=#23445D;strokeColor=#FFFFFF;strokeWidth=2;fontColor=#FFFFFF;fontStyle=1;rounded=0;" parent="1" vertex="1">
          <mxGeometry x="1086.5000000000016" y="360.00000000000006" width="20" height="20" as="geometry" />
        </mxCell>
        <mxCell id="yrYbkvFYg02SQjdJ59uQ-187" value="S" style="fillColor=#23445D;strokeColor=#FFFFFF;strokeWidth=2;fontColor=#FFFFFF;fontStyle=1;rounded=0;" parent="1" vertex="1">
          <mxGeometry x="1106.5000000000016" y="360.00000000000006" width="20" height="20" as="geometry" />
        </mxCell>
        <mxCell id="yrYbkvFYg02SQjdJ59uQ-188" value="S" style="fillColor=#23445D;strokeColor=#FFFFFF;strokeWidth=2;fontColor=#FFFFFF;fontStyle=1;rounded=0;" parent="1" vertex="1">
          <mxGeometry x="1126.5000000000016" y="360.00000000000006" width="20" height="20" as="geometry" />
        </mxCell>
        <mxCell id="yrYbkvFYg02SQjdJ59uQ-189" value="19 March 25" style="fillColor=#23445D;strokeColor=#FFFFFF;strokeWidth=2;fontColor=#FFFFFF;fontStyle=1;rounded=0;" parent="1" vertex="1">
          <mxGeometry x="1106.5000000000018" y="340.00000000000006" width="140" height="20" as="geometry" />
        </mxCell>
        <mxCell id="yrYbkvFYg02SQjdJ59uQ-190" value="M" style="fillColor=#23445D;strokeColor=#FFFFFF;strokeWidth=2;fontColor=#FFFFFF;fontStyle=1;rounded=0;" parent="1" vertex="1">
          <mxGeometry x="1146.5000000000018" y="360.00000000000006" width="20" height="20" as="geometry" />
        </mxCell>
        <mxCell id="yrYbkvFYg02SQjdJ59uQ-191" value="T" style="fillColor=#23445D;strokeColor=#FFFFFF;strokeWidth=2;fontColor=#FFFFFF;fontStyle=1;rounded=0;" parent="1" vertex="1">
          <mxGeometry x="1166.5000000000018" y="360.00000000000006" width="20" height="20" as="geometry" />
        </mxCell>
        <mxCell id="yrYbkvFYg02SQjdJ59uQ-192" value="W" style="fillColor=#23445D;strokeColor=#FFFFFF;strokeWidth=2;fontColor=#FFFFFF;fontStyle=1;rounded=0;" parent="1" vertex="1">
          <mxGeometry x="1186.5000000000018" y="360.00000000000006" width="20" height="20" as="geometry" />
        </mxCell>
        <mxCell id="yrYbkvFYg02SQjdJ59uQ-193" value="T" style="fillColor=#23445D;strokeColor=#FFFFFF;strokeWidth=2;fontColor=#FFFFFF;fontStyle=1;rounded=0;" parent="1" vertex="1">
          <mxGeometry x="1206.5000000000018" y="360.00000000000006" width="20" height="20" as="geometry" />
        </mxCell>
        <mxCell id="yrYbkvFYg02SQjdJ59uQ-194" value="F" style="fillColor=#23445D;strokeColor=#FFFFFF;strokeWidth=2;fontColor=#FFFFFF;fontStyle=1;rounded=0;" parent="1" vertex="1">
          <mxGeometry x="1226.5000000000016" y="360" width="20" height="20" as="geometry" />
        </mxCell>
        <mxCell id="yrYbkvFYg02SQjdJ59uQ-195" value="S" style="fillColor=#23445D;strokeColor=#FFFFFF;strokeWidth=2;fontColor=#FFFFFF;fontStyle=1;rounded=0;" parent="1" vertex="1">
          <mxGeometry x="1246.5000000000016" y="360" width="20" height="20" as="geometry" />
        </mxCell>
        <mxCell id="yrYbkvFYg02SQjdJ59uQ-196" value="S" style="fillColor=#23445D;strokeColor=#FFFFFF;strokeWidth=2;fontColor=#FFFFFF;fontStyle=1;rounded=0;" parent="1" vertex="1">
          <mxGeometry x="1266.5000000000016" y="360" width="20" height="20" as="geometry" />
        </mxCell>
        <mxCell id="yrYbkvFYg02SQjdJ59uQ-197" value="26 March 25" style="fillColor=#23445D;strokeColor=#FFFFFF;strokeWidth=2;fontColor=#FFFFFF;fontStyle=1;rounded=0;" parent="1" vertex="1">
          <mxGeometry x="1246.5000000000018" y="340.00000000000006" width="140" height="20" as="geometry" />
        </mxCell>
        <mxCell id="yrYbkvFYg02SQjdJ59uQ-198" value="M" style="fillColor=#23445D;strokeColor=#FFFFFF;strokeWidth=2;fontColor=#FFFFFF;fontStyle=1;rounded=0;" parent="1" vertex="1">
          <mxGeometry x="1286.5000000000018" y="360.00000000000006" width="20" height="20" as="geometry" />
        </mxCell>
        <mxCell id="yrYbkvFYg02SQjdJ59uQ-199" value="T" style="fillColor=#23445D;strokeColor=#FFFFFF;strokeWidth=2;fontColor=#FFFFFF;fontStyle=1;rounded=0;" parent="1" vertex="1">
          <mxGeometry x="1306.5000000000018" y="360.00000000000006" width="20" height="20" as="geometry" />
        </mxCell>
        <mxCell id="yrYbkvFYg02SQjdJ59uQ-200" value="W" style="fillColor=#23445D;strokeColor=#FFFFFF;strokeWidth=2;fontColor=#FFFFFF;fontStyle=1;rounded=0;" parent="1" vertex="1">
          <mxGeometry x="1366.5000000000018" y="360.00000000000006" width="20" height="20" as="geometry" />
        </mxCell>
        <mxCell id="yrYbkvFYg02SQjdJ59uQ-201" value="T" style="fillColor=#23445D;strokeColor=#FFFFFF;strokeWidth=2;fontColor=#FFFFFF;fontStyle=1;rounded=0;" parent="1" vertex="1">
          <mxGeometry x="1326.5000000000018" y="360.00000000000006" width="20" height="20" as="geometry" />
        </mxCell>
        <mxCell id="yrYbkvFYg02SQjdJ59uQ-202" value="F" style="fillColor=#23445D;strokeColor=#FFFFFF;strokeWidth=2;fontColor=#FFFFFF;fontStyle=1;rounded=0;" parent="1" vertex="1">
          <mxGeometry x="1346.5000000000016" y="360" width="20" height="20" as="geometry" />
        </mxCell>
        <mxCell id="yrYbkvFYg02SQjdJ59uQ-203" value="S" style="fillColor=#23445D;strokeColor=#FFFFFF;strokeWidth=2;fontColor=#FFFFFF;fontStyle=1;rounded=0;" parent="1" vertex="1">
          <mxGeometry x="1366.5000000000016" y="360" width="20" height="20" as="geometry" />
        </mxCell>
        <mxCell id="yrYbkvFYg02SQjdJ59uQ-204" value="S" style="fillColor=#23445D;strokeColor=#FFFFFF;strokeWidth=2;fontColor=#FFFFFF;fontStyle=1;rounded=0;" parent="1" vertex="1">
          <mxGeometry x="1386.5000000000016" y="360" width="20" height="20" as="geometry" />
        </mxCell>
        <mxCell id="yrYbkvFYg02SQjdJ59uQ-205" value="3 May 25" style="fillColor=#23445D;strokeColor=#FFFFFF;strokeWidth=2;fontColor=#FFFFFF;fontStyle=1;rounded=0;" parent="1" vertex="1">
          <mxGeometry x="1366.5000000000018" y="340" width="140" height="20" as="geometry" />
        </mxCell>
        <mxCell id="yrYbkvFYg02SQjdJ59uQ-206" value="M" style="fillColor=#23445D;strokeColor=#FFFFFF;strokeWidth=2;fontColor=#FFFFFF;fontStyle=1;rounded=0;" parent="1" vertex="1">
          <mxGeometry x="1406.5000000000018" y="360" width="20" height="20" as="geometry" />
        </mxCell>
        <mxCell id="yrYbkvFYg02SQjdJ59uQ-207" value="T" style="fillColor=#23445D;strokeColor=#FFFFFF;strokeWidth=2;fontColor=#FFFFFF;fontStyle=1;rounded=0;" parent="1" vertex="1">
          <mxGeometry x="1426.5000000000018" y="360" width="20" height="20" as="geometry" />
        </mxCell>
        <mxCell id="yrYbkvFYg02SQjdJ59uQ-208" value="W" style="fillColor=#23445D;strokeColor=#FFFFFF;strokeWidth=2;fontColor=#FFFFFF;fontStyle=1;rounded=0;" parent="1" vertex="1">
          <mxGeometry x="1446.5000000000018" y="360" width="20" height="20" as="geometry" />
        </mxCell>
        <mxCell id="yrYbkvFYg02SQjdJ59uQ-209" value="T" style="fillColor=#23445D;strokeColor=#FFFFFF;strokeWidth=2;fontColor=#FFFFFF;fontStyle=1;rounded=0;" parent="1" vertex="1">
          <mxGeometry x="1466.5000000000018" y="360" width="20" height="20" as="geometry" />
        </mxCell>
        <mxCell id="yrYbkvFYg02SQjdJ59uQ-210" value="F" style="fillColor=#23445D;strokeColor=#FFFFFF;strokeWidth=2;fontColor=#FFFFFF;fontStyle=1;rounded=0;" parent="1" vertex="1">
          <mxGeometry x="1486.5000000000016" y="360" width="20" height="20" as="geometry" />
        </mxCell>
        <mxCell id="yrYbkvFYg02SQjdJ59uQ-211" value="S" style="fillColor=#23445D;strokeColor=#FFFFFF;strokeWidth=2;fontColor=#FFFFFF;fontStyle=1;rounded=0;" parent="1" vertex="1">
          <mxGeometry x="1506.5000000000016" y="360" width="20" height="20" as="geometry" />
        </mxCell>
        <mxCell id="yrYbkvFYg02SQjdJ59uQ-212" value="S" style="fillColor=#23445D;strokeColor=#FFFFFF;strokeWidth=2;fontColor=#FFFFFF;fontStyle=1;rounded=0;" parent="1" vertex="1">
          <mxGeometry x="1526.5000000000016" y="360" width="20" height="20" as="geometry" />
        </mxCell>
        <mxCell id="yrYbkvFYg02SQjdJ59uQ-213" value="10 May 25" style="fillColor=#23445D;strokeColor=#FFFFFF;strokeWidth=2;fontColor=#FFFFFF;fontStyle=1;rounded=0;" parent="1" vertex="1">
          <mxGeometry x="1506.5000000000018" y="340.0000000000001" width="140" height="20" as="geometry" />
        </mxCell>
        <mxCell id="yrYbkvFYg02SQjdJ59uQ-214" value="M" style="fillColor=#23445D;strokeColor=#FFFFFF;strokeWidth=2;fontColor=#FFFFFF;fontStyle=1;rounded=0;" parent="1" vertex="1">
          <mxGeometry x="1546.5000000000018" y="360.0000000000001" width="20" height="20" as="geometry" />
        </mxCell>
        <mxCell id="yrYbkvFYg02SQjdJ59uQ-215" value="T" style="fillColor=#23445D;strokeColor=#FFFFFF;strokeWidth=2;fontColor=#FFFFFF;fontStyle=1;rounded=0;" parent="1" vertex="1">
          <mxGeometry x="1566.5000000000018" y="360.0000000000001" width="20" height="20" as="geometry" />
        </mxCell>
        <mxCell id="yrYbkvFYg02SQjdJ59uQ-216" value="W" style="fillColor=#23445D;strokeColor=#FFFFFF;strokeWidth=2;fontColor=#FFFFFF;fontStyle=1;rounded=0;" parent="1" vertex="1">
          <mxGeometry x="1586.5000000000018" y="360.0000000000001" width="20" height="20" as="geometry" />
        </mxCell>
        <mxCell id="yrYbkvFYg02SQjdJ59uQ-217" value="T" style="fillColor=#23445D;strokeColor=#FFFFFF;strokeWidth=2;fontColor=#FFFFFF;fontStyle=1;rounded=0;" parent="1" vertex="1">
          <mxGeometry x="1606.5000000000018" y="360.0000000000001" width="20" height="20" as="geometry" />
        </mxCell>
        <mxCell id="yrYbkvFYg02SQjdJ59uQ-218" value="F" style="fillColor=#23445D;strokeColor=#FFFFFF;strokeWidth=2;fontColor=#FFFFFF;fontStyle=1;rounded=0;" parent="1" vertex="1">
          <mxGeometry x="1626.5000000000016" y="360.0000000000001" width="20" height="20" as="geometry" />
        </mxCell>
        <mxCell id="yrYbkvFYg02SQjdJ59uQ-219" value="" style="strokeColor=#DEEDFF;fillColor=#D4E1FF;rounded=0;" parent="1" vertex="1">
          <mxGeometry x="686.500000000002" y="380.0000000000075" width="20" height="520" as="geometry" />
        </mxCell>
        <mxCell id="yrYbkvFYg02SQjdJ59uQ-220" value="" style="strokeColor=#DEEDFF;fillColor=#D4E1FF;rounded=0;" parent="1" vertex="1">
          <mxGeometry x="706.500000000002" y="380.0000000000075" width="20" height="520" as="geometry" />
        </mxCell>
        <mxCell id="yrYbkvFYg02SQjdJ59uQ-221" value="S" style="fillColor=#23445D;strokeColor=#FFFFFF;strokeWidth=2;fontColor=#FFFFFF;fontStyle=1;rounded=0;" parent="1" vertex="1">
          <mxGeometry x="686.5000000000016" y="360.0000000000001" width="20" height="20" as="geometry" />
        </mxCell>
        <mxCell id="yrYbkvFYg02SQjdJ59uQ-222" value="S" style="fillColor=#23445D;strokeColor=#FFFFFF;strokeWidth=2;fontColor=#FFFFFF;fontStyle=1;rounded=0;" parent="1" vertex="1">
          <mxGeometry x="706.5000000000016" y="360.0000000000001" width="20" height="20" as="geometry" />
        </mxCell>
        <mxCell id="yrYbkvFYg02SQjdJ59uQ-223" value="" style="shape=mxgraph.arrows.bent_right_arrow;fillColor=#AE4132;strokeColor=none;strokeWidth=2;direction=south;rounded=0;" parent="1" vertex="1">
          <mxGeometry x="726.500000000002" y="389.99999999999966" width="10.000000000000341" height="9.99999999999983" as="geometry" />
        </mxCell>
        <mxCell id="yrYbkvFYg02SQjdJ59uQ-224" value="" style="shape=mxgraph.flowchart.process;fillColor=#AE4132;strokeColor=none;strokeWidth=2;opacity=50;rounded=0;" parent="1" vertex="1">
          <mxGeometry x="706.5000000000032" y="379.9999999999997" width="19.999999999998863" height="19.99999999999983" as="geometry" />
        </mxCell>
        <mxCell id="yrYbkvFYg02SQjdJ59uQ-225" value="" style="shape=mxgraph.flowchart.process;fillColor=#AE4132;strokeColor=none;strokeWidth=2;opacity=50;rounded=0;" parent="1" vertex="1">
          <mxGeometry x="746.5000000000018" y="420.00000000000085" width="19.999999999998863" height="19.99999999999983" as="geometry" />
        </mxCell>
        <mxCell id="yrYbkvFYg02SQjdJ59uQ-226" value="" style="shape=mxgraph.arrows.bent_right_arrow;fillColor=#AE4132;strokeColor=none;strokeWidth=2;direction=south;rounded=0;" parent="1" vertex="1">
          <mxGeometry x="746.500000000001" y="409.99999999999943" width="10.000000000000341" height="9.99999999999983" as="geometry" />
        </mxCell>
        <mxCell id="yrYbkvFYg02SQjdJ59uQ-227" value="" style="shape=mxgraph.arrows.bent_right_arrow;fillColor=#AE4132;strokeColor=none;strokeWidth=2;direction=south;rounded=0;" parent="1" vertex="1">
          <mxGeometry x="766.5000000000007" y="430.0000000000001" width="10.000000000000341" height="9.99999999999983" as="geometry" />
        </mxCell>
        <mxCell id="yrYbkvFYg02SQjdJ59uQ-228" value="" style="shape=mxgraph.flowchart.process;fillColor=#AE4132;strokeColor=none;strokeWidth=2;opacity=50;rounded=0;" parent="1" vertex="1">
          <mxGeometry x="726.5000000000018" y="400.00000000000085" width="19.999999999998863" height="19.99999999999983" as="geometry" />
        </mxCell>
        <mxCell id="yrYbkvFYg02SQjdJ59uQ-229" value="M" style="fillColor=#23445D;strokeColor=#FFFFFF;strokeWidth=2;fontColor=#FFFFFF;fontStyle=1;rounded=0;" parent="1" vertex="1">
          <mxGeometry x="866.5000000000018" y="360.0000000000001" width="20" height="20" as="geometry" />
        </mxCell>
        <mxCell id="yrYbkvFYg02SQjdJ59uQ-230" value="T" style="fillColor=#23445D;strokeColor=#FFFFFF;strokeWidth=2;fontColor=#FFFFFF;fontStyle=1;rounded=0;" parent="1" vertex="1">
          <mxGeometry x="886.5000000000018" y="360.0000000000001" width="20" height="20" as="geometry" />
        </mxCell>
        <mxCell id="yrYbkvFYg02SQjdJ59uQ-231" value="" style="strokeColor=#DEEDFF;fillColor=#D4E1FF;rounded=0;" parent="1" vertex="1">
          <mxGeometry x="966.5000000000018" y="380.00000000001114" width="20" height="520" as="geometry" />
        </mxCell>
        <mxCell id="yrYbkvFYg02SQjdJ59uQ-232" value="" style="strokeColor=#DEEDFF;fillColor=#D4E1FF;rounded=0;" parent="1" vertex="1">
          <mxGeometry x="986.5000000000018" y="380.0000000000148" width="20" height="520" as="geometry" />
        </mxCell>
        <mxCell id="yrYbkvFYg02SQjdJ59uQ-233" value="" style="strokeColor=#DEEDFF;fillColor=#D4E1FF;rounded=0;" parent="1" vertex="1">
          <mxGeometry x="1106.5" y="380" width="20" height="510" as="geometry" />
        </mxCell>
        <mxCell id="yrYbkvFYg02SQjdJ59uQ-234" value="" style="strokeColor=#DEEDFF;fillColor=#D4E1FF;rounded=0;" parent="1" vertex="1">
          <mxGeometry x="1126.5" y="380" width="20" height="510" as="geometry" />
        </mxCell>
        <mxCell id="yrYbkvFYg02SQjdJ59uQ-235" value="" style="strokeColor=#DEEDFF;fillColor=#D4E1FF;rounded=0;" parent="1" vertex="1">
          <mxGeometry x="1246.500000000002" y="380.00000000002206" width="20" height="520" as="geometry" />
        </mxCell>
        <mxCell id="yrYbkvFYg02SQjdJ59uQ-236" value="" style="strokeColor=#DEEDFF;fillColor=#D4E1FF;rounded=0;" parent="1" vertex="1">
          <mxGeometry x="1266.500000000002" y="380.00000000002206" width="20" height="520" as="geometry" />
        </mxCell>
        <mxCell id="yrYbkvFYg02SQjdJ59uQ-237" value="" style="strokeColor=#DEEDFF;fillColor=#D4E1FF;rounded=0;" parent="1" vertex="1">
          <mxGeometry x="1366.5000000000016" y="380.00000000002933" width="20" height="520" as="geometry" />
        </mxCell>
        <mxCell id="yrYbkvFYg02SQjdJ59uQ-238" value="" style="strokeColor=#DEEDFF;fillColor=#D4E1FF;rounded=0;" parent="1" vertex="1">
          <mxGeometry x="1386.5000000000016" y="380.00000000002933" width="20" height="520" as="geometry" />
        </mxCell>
        <mxCell id="yrYbkvFYg02SQjdJ59uQ-239" value="" style="strokeColor=#DEEDFF;fillColor=#D4E1FF;rounded=0;" parent="1" vertex="1">
          <mxGeometry x="1506.5000000000016" y="380.0000000000184" width="20" height="520" as="geometry" />
        </mxCell>
        <mxCell id="yrYbkvFYg02SQjdJ59uQ-240" value="" style="strokeColor=#DEEDFF;fillColor=#D4E1FF;rounded=0;" parent="1" vertex="1">
          <mxGeometry x="1526.5000000000016" y="380.00000000002206" width="20" height="520" as="geometry" />
        </mxCell>
        <mxCell id="yrYbkvFYg02SQjdJ59uQ-241" value="" style="shape=mxgraph.flowchart.process;fillColor=#AE4132;strokeColor=none;strokeWidth=2;opacity=50;rounded=0;" parent="1" vertex="1">
          <mxGeometry x="806.5" y="460" width="20" height="20" as="geometry" />
        </mxCell>
        <mxCell id="yrYbkvFYg02SQjdJ59uQ-242" value="" style="shape=mxgraph.arrows.bent_right_arrow;fillColor=#AE4132;strokeColor=none;strokeWidth=2;direction=south;rounded=0;" parent="1" vertex="1">
          <mxGeometry x="806.5" y="450" width="11.5" height="10" as="geometry" />
        </mxCell>
        <mxCell id="yrYbkvFYg02SQjdJ59uQ-243" value="" style="shape=mxgraph.flowchart.process;fillColor=#AE4132;strokeColor=none;strokeWidth=2;opacity=50;rounded=0;" parent="1" vertex="1">
          <mxGeometry x="766.5" y="440.00000000000114" width="40" height="19.99999999999983" as="geometry" />
        </mxCell>
        <mxCell id="yrYbkvFYg02SQjdJ59uQ-244" value="" style="shape=mxgraph.arrows.bent_right_arrow;fillColor=#AE4132;strokeColor=none;strokeWidth=2;direction=south;rounded=0;perimeterSpacing=0;fontSize=12;" parent="1" vertex="1">
          <mxGeometry x="826.5" y="470" width="43" height="10" as="geometry" />
        </mxCell>
        <mxCell id="yrYbkvFYg02SQjdJ59uQ-245" value="" style="align=left;strokeColor=default;rounded=0;" parent="1" vertex="1">
          <mxGeometry x="126.5" y="620.0000000000014" width="320" height="20" as="geometry" />
        </mxCell>
        <mxCell id="yrYbkvFYg02SQjdJ59uQ-246" value="API 기능 개발(결제 시스템) 및 테스트 코드 작성" style="align=left;rounded=0;" parent="1" vertex="1">
          <mxGeometry x="127.50000000000037" y="560.000000000001" width="319.99999999999966" height="20.00000000000003" as="geometry" />
        </mxCell>
        <mxCell id="yrYbkvFYg02SQjdJ59uQ-247" value="" style="align=left;strokeColor=default;rounded=0;" parent="1" vertex="1">
          <mxGeometry x="126.5" y="660.0000000000014" width="320" height="20" as="geometry" />
        </mxCell>
        <mxCell id="yrYbkvFYg02SQjdJ59uQ-248" value="API 기능 개발(예약 시스템) 및 테스트 코드 작성" style="align=left;strokeColor=default;rounded=0;" parent="1" vertex="1">
          <mxGeometry x="126.5" y="580.0000000000014" width="320" height="20" as="geometry" />
        </mxCell>
        <mxCell id="yrYbkvFYg02SQjdJ59uQ-249" value="2" style="rounded=0;" parent="1" vertex="1">
          <mxGeometry x="446.5000000000021" y="560.0000000000009" width="80.00000000000028" height="20" as="geometry" />
        </mxCell>
        <mxCell id="yrYbkvFYg02SQjdJ59uQ-250" value="2" style="rounded=0;" parent="1" vertex="1">
          <mxGeometry x="446.5000000000021" y="580.0000000000009" width="80.00000000000028" height="20" as="geometry" />
        </mxCell>
        <mxCell id="yrYbkvFYg02SQjdJ59uQ-251" value="" style="shape=mxgraph.flowchart.process;fillColor=#AE4132;strokeColor=none;strokeWidth=2;opacity=50;rounded=0;" parent="1" vertex="1">
          <mxGeometry x="906.5" y="520.0000000000011" width="40" height="19.99999999999983" as="geometry" />
        </mxCell>
        <mxCell id="yrYbkvFYg02SQjdJ59uQ-252" value="" style="shape=mxgraph.flowchart.process;fillColor=#AE4132;strokeColor=none;strokeWidth=2;opacity=50;rounded=0;" parent="1" vertex="1">
          <mxGeometry x="886.5" y="500" width="20" height="20" as="geometry" />
        </mxCell>
        <mxCell id="yrYbkvFYg02SQjdJ59uQ-253" value="" style="shape=mxgraph.flowchart.process;fillColor=#AE4132;strokeColor=none;strokeWidth=2;opacity=50;rounded=0;" parent="1" vertex="1">
          <mxGeometry x="846.5" y="480.00000000000114" width="40" height="19.99999999999983" as="geometry" />
        </mxCell>
        <mxCell id="yrYbkvFYg02SQjdJ59uQ-254" value="" style="shape=mxgraph.arrows.bent_right_arrow;fillColor=#AE4132;strokeColor=none;strokeWidth=2;direction=south;rounded=0;" parent="1" vertex="1">
          <mxGeometry x="886.5" y="490" width="11.5" height="10" as="geometry" />
        </mxCell>
        <mxCell id="yrYbkvFYg02SQjdJ59uQ-255" value="" style="shape=mxgraph.arrows.bent_right_arrow;fillColor=#AE4132;strokeColor=none;strokeWidth=2;direction=south;rounded=0;" parent="1" vertex="1">
          <mxGeometry x="906.5" y="510" width="11.5" height="10" as="geometry" />
        </mxCell>
      </root>
    </mxGraphModel>
  </diagram>
</mxfile>
